# xmcd
# 
# Track frame offsets:
#     150
#     16445
#     43345
#     60594
#     76932
#     95721
#     115239
#     133029
#     143090
#     153153
#     165048
#     173340
#     182598
#     199212
#     211926
#     228619
#     245688
#     262385
#     276106
#     299152
# 
# Disc length: 4194
# 
# Revision: 0
# Processed by: cddbd v1.5.2PL0 Copyright (c) Steve Scherf et al.
# Submitted via: BonkEnc v1.0
# 
DISCID=25106014
DTITLE=Tradição O Melhor 2006 - Tradição - O Melhor 2006
DYEAR=2006
DGENRE=Gaucha
TTITLE0=Saudade Mandou Avisar
TTITLE1=Pout-pourri - Ajoelha e Chora/Pra Lá de Bagda/Mulher Boa
TTITLE2=Barquinho
TTITLE3=Campeão de Bilheteria
TTITLE4=Cheguei e Fui Dando Porrada
TTITLE5=Cor da Esperança
TTITLE6=Brasileira
TTITLE7=Capricha Gaiteiro
TTITLE8=Faz Isso Não Paixão
TTITLE9=Não Chora China Véia
TTITLE10=Sessenta Dias Apaixonado
TTITLE11=To Voltando Pra Ficar
TTITLE12=No Barulho da Sanfona
TTITLE13=Pé De Cedro
TTITLE14=Pirata
TTITLE15=Pra Sempre Minha Vida
TTITLE16=Rainha do Baile
TTITLE17=Ta Bão
TTITLE18=A Saudade Mandou Avisar
TTITLE19=Vou Beber de Novo Princesa
EXTD=
EXTT0=
EXTT1=
EXTT2=
EXTT3=
EXTT4=
EXTT5=
EXTT6=
EXTT7=
EXTT8=
EXTT9=
EXTT10=
EXTT11=
EXTT12=
EXTT13=
EXTT14=
EXTT15=
EXTT16=
EXTT17=
EXTT18=
EXTT19=
PLAYORDER=
